<?xml version="1.0" ?><!DOCTYPE svg  PUBLIC '-//W3C//DTD SVG 1.1//EN'  'http://www.w3.org/Graphics/SVG/1.1/DTD/svg11.dtd'><svg enable-background="new 0 0 64 64" version="1.1" viewBox="0 0 64 64" xml:space="preserve" xmlns="http://www.w3.org/2000/svg" xmlns:xlink="http://www.w3.org/1999/xlink"><g id="Flag40"/><g id="Flag39"/><g id="Flag38"/><g id="Flag37"/><g id="Flag36"/><g id="Flag35"/><g id="Flag34"/><g id="Flag33"/><g id="Flag32"/><g id="Flag31"/><g id="Flag30"/><g id="Flag29"/><g id="Flag28"><g><rect fill="#00936B" height="36" width="60" x="2" y="14"/><path d="M62,51H2c-0.5522,0-1-0.4473-1-1V14c0-0.5527,0.4478-1,1-1h60c0.5527,0,1,0.4473,1,1v36    C63,50.5527,62.5527,51,62,51z M3,49h58V15H3V49z" fill="#414042"/></g><g><rect fill="#333333" height="18" width="60" x="2" y="14"/><path d="M62,33H2c-0.5522,0-1-0.4473-1-1V14c0-0.5527,0.4478-1,1-1h60c0.5527,0,1,0.4473,1,1v18    C63,32.5527,62.5527,33,62,33z M3,31h58V15H3V31z" fill="#414042"/></g><g><rect fill="#FCFCFC" height="12" width="46" x="16" y="26"/><path d="M62,39H16c-0.5522,0-1-0.4473-1-1V26c0-0.5527,0.4478-1,1-1h46c0.5527,0,1,0.4473,1,1v12    C63,38.5527,62.5527,39,62,39z M17,37h44V27H17V37z" fill="#414042"/></g><g><polygon fill="#D34A4B" points="2,14 24,32 2,50   "/><path d="M2,51c-0.1455,0-0.292-0.0313-0.4282-0.0967C1.2227,50.7383,1,50.3867,1,50V14    c0-0.3867,0.2227-0.7383,0.5718-0.9033c0.3472-0.168,0.7622-0.1152,1.0615,0.1289l22,18C24.8652,31.416,25,31.7002,25,32    s-0.1348,0.584-0.3667,0.7744l-22,18C2.4512,50.9229,2.2266,51,2,51z M3,16.1104v31.7793L22.4209,32L3,16.1104z" fill="#414042"/></g></g><g id="Flag27"/><g id="Flag26"/><g id="Flag25"/><g id="Flag24"/><g id="Flag23"/><g id="Flag22"/><g id="Flag21"/><g id="Flag20"/><g id="Flag19"/><g id="Flag18"/><g id="Flag17"/><g id="Flag16"/><g id="Flag15"/><g id="Flag14"/><g id="Flag13"/><g id="Flag12"/><g id="Flag11"/><g id="Flag10"/><g id="Flag09"/><g id="Flag08"/><g id="Flag07"/><g id="Flag06"/><g id="Flag05"/><g id="Flag04"/><g id="Flag03"/><g id="Flag02"/><g id="Flag01"/></svg>